PathFileType	4	(X/Y/Z)	C:/Users/opensim2020/Desktop/walking_exp_matlab/subject03_walking05_straight_04.trc																																																																																																																																					
DataRate	CameraRate	NumFrames	NumMarkers	Units	OrigDataRate	OrigDataStartFrame	OrigNumFrames																																																																																																																																	
100	100	5	45	mm	100	2965	294																																																																																																																																	
Frame#	Time	LFHD			RFHD			LBHD			RBHD			C7			T10			CLAV			STRN			RBAK			LSHO			LUPA			LELB			LFRM			LWRA			LWRB			LFIN			RSHO			RUPA			RELB			RFRM			RWRA			RWRB			RFIN			LASI			RASI			LPSI			RPSI			LTHI			LKNE			LTIB			LANK			LHEE			LTOE			RTHI			RKNE			RTIB			RANK			RHEE			RTOE			*39			*40			*41			*42			*43			*44		
		X1	Y1	Z1	X2	Y2	Z2	X3	Y3	Z3	X4	Y4	Z4	X5	Y5	Z5	X6	Y6	Z6	X7	Y7	Z7	X8	Y8	Z8	X9	Y9	Z9	X10	Y10	Z10	X11	Y11	Z11	X12	Y12	Z12	X13	Y13	Z13	X14	Y14	Z14	X15	Y15	Z15	X16	Y16	Z16	X17	Y17	Z17	X18	Y18	Z18	X19	Y19	Z19	X20	Y20	Z20	X21	Y21	Z21	X22	Y22	Z22	X23	Y23	Z23	X24	Y24	Z24	X25	Y25	Z25	X26	Y26	Z26	X27	Y27	Z27	X28	Y28	Z28	X29	Y29	Z29	X30	Y30	Z30	X31	Y31	Z31	X32	Y32	Z32	X33	Y33	Z33	X34	Y34	Z34	X35	Y35	Z35	X36	Y36	Z36	X37	Y37	Z37	X38	Y38	Z38	X39	Y39	Z39	X40	Y40	Z40	X41	Y41	Z41	X42	Y42	Z42	X43	Y43	Z43	X44	Y44	Z44	X45	Y45	Z45
																																																																																																																																								
111	1.1	-582.9151	1611.44275	-1493.78882	-601.1637	1618.31396	-1362.5249	-712.46649	1570.37354	-1505.96741	-724.6355	1576.7655	-1375.48389	-753.27386	1412.05396	-1438.18909	-785.29791	1097.52063	-1439.51746	-631.59613	1334.8064	-1436.44446	-587.01337	1170.96497	-1437.04321	-804.63293	1237.51331	-1336.52112	-679.56702	1368.55139	-1594.13647	-716.6618	1169.53394	-1656.94495	-728.96173	1046.43445	-1666.07935	-724.06989	916.25555	-1667.86157	-719.16748	796.51001	-1640.10925	-750.53821	805.57959	-1685.54028	-749.96735	720.453	-1676.1748	-675.09424	1361.40698	-1277.7887	-635.7547	1145.77344	-1197.22974	-594.71991	1041.51819	-1183.1582	-540.44128	916.08746	-1184.22974	-488.07971	833.72028	-1224.68506	-511.73044	819.98505	-1178.04895	-468.78717	760.62531	-1190.3999	-608.19971	933.89459	-1545.49121	-630.46539	935.20007	-1307.95618	-774.60773	951.02759	-1512.08472	-786.05048	966.12402	-1363.07605	-602.43866	632.37054	-1598.34314	-535.87463	470.21036	-1549.74207	-520.30469	281.13678	-1552.80969	-458.25848	78.51573	-1521.52942	-483.51968	33.88765	-1479.41675	-304.98062	80.15254	-1502.6438	-726.47461	646.08386	-1278.74854	-747.17902	467.71494	-1316.12292	-835.18286	295.06476	-1320.59631	-907.00897	90.75553	-1376.22217	-952.88312	66.99492	-1429.03796	-770.74084	35.90355	-1387.74365	-670.51459	1677.38306	-1455.89905	NaN	NaN	NaN	NaN	NaN	NaN	NaN	NaN	NaN	NaN	NaN	NaN	NaN	NaN	NaN
112	1.11	-573.48456	1610.6604	-1494.52148	-591.60529	1617.57715	-1363.26306	-702.98584	1568.95947	-1506.45276	-715.06421	1575.59277	-1376.25647	-743.12756	1410.79309	-1438.68481	-774.89136	1096.37122	-1440.56677	-621.33612	1333.73657	-1436.81677	-576.6416	1169.72717	-1437.1228	-794.68311	1236.28247	-1337.30859	-669.12292	1367.49365	-1594.59937	-707.78809	1168.68628	-1657.36365	-721.74268	1045.854	-1666.6759	-717.99811	915.51227	-1668.27515	-714.66632	795.28906	-1640.52747	-745.92004	805.21454	-1686.08545	-745.99554	719.94147	-1676.5575	-665.16003	1360.20349	-1278.19385	-625.83875	1144.79846	-1197.41516	-584.55017	1040.67664	-1183.26111	-529.06708	915.81934	-1184.85754	-475.97638	834.31647	-1225.87158	-499.31287	820.0506	-1179.245	-455.4415	761.41187	-1191.86011	-597.17499	932.6925	-1545.51941	-620.88879	934.14233	-1308.04053	-764.05859	950.10522	-1513.43677	-776.14514	964.96918	-1364.41223	-593.55811	630.30774	-1597.9021	-526.96173	468.41226	-1547.52576	-507.62677	280.75781	-1551.85474	-441.1412	78.86183	-1520.90637	-466.13412	34.14199	-1479.39722	-287.76669	83.39475	-1502.58545	-718.80847	645.73218	-1278.12744	-740.42371	467.2662	-1315.72375	-830.9126	295.81461	-1320.27368	-906.12189	92.53609	-1375.87732	-952.41028	69.81856	-1429.07092	-770.53687	35.79557	-1387.6145	NaN	NaN	NaN	NaN	NaN	NaN	NaN	NaN	NaN	NaN	NaN	NaN	NaN	NaN	NaN	NaN	NaN	NaN
113	1.12	-563.99786	1609.89136	-1495.20862	-582.06744	1616.91675	-1363.9823	-693.31055	1567.68152	-1506.99805	-705.31854	1574.36707	-1376.75696	-732.92035	1409.60962	-1439.23376	-764.4339	1095.27185	-1441.5918	-611.05585	1332.75269	-1437.19849	-566.37897	1168.67847	-1437.23792	-784.72632	1235.16418	-1338.24768	-658.19244	1366.27051	-1594.76953	-698.62103	1167.8783	-1657.83704	-713.505	1044.99976	-1666.83594	-711.40076	914.73962	-1668.70825	-708.82233	794.88354	-1641.21838	-740.39362	804.68976	-1686.31702	-741.40253	719.36017	-1676.95471	-655.31769	1359.10388	-1278.62036	-615.87335	1143.85693	-1197.72607	-574.52728	1039.81641	-1183.51831	-517.9342	915.45758	-1185.59253	-463.74692	834.8147	-1226.71387	-487.2886	820.02478	-1180.43323	-442.47559	761.88373	-1193.24414	-586.00031	931.62201	-1545.52161	-611.18768	933.16156	-1308.13928	-753.38776	949.37811	-1514.71814	-766.08972	963.95746	-1365.77979	-583.7113	628.76086	-1596.88928	-517.62585	467.02933	-1546.0531	-495.76801	280.30481	-1551.15784	-426.40573	78.19794	-1519.73401	-451.35168	33.40857	-1478.9856	-273.48914	85.06873	-1501.90894	-710.89551	645.47821	-1277.77698	-733.37164	466.91425	-1315.32739	-826.21234	296.75528	-1319.80078	-904.95044	94.48764	-1375.6084	-951.32886	72.50015	-1428.57336	-770.32098	35.6812	-1387.43677	-652.03729	1675.25574	-1457.2572	NaN	NaN	NaN	NaN	NaN	NaN	NaN	NaN	NaN	NaN	NaN	NaN	NaN	NaN	NaN
114	1.13	-554.43231	1609.20178	-1495.91919	-572.48737	1616.32776	-1364.72778	-683.95868	1566.64575	-1508.1189	-695.4942	1573.17517	-1377.1311	-722.72144	1408.58301	-1439.93811	-753.7287	1094.23022	-1442.54565	-600.68207	1331.80212	-1437.57385	-555.72845	1167.87061	-1437.37109	-774.65057	1234.04211	-1339.20837	-647.56915	1365.2583	-1595.34595	-689.01776	1166.98145	-1658.26733	-705.04944	1044.26379	-1667.25916	-704.29132	913.9859	-1669.15979	-702.81226	794.15381	-1641.73181	-734.47583	804.24414	-1686.78345	-736.48425	719.05334	-1677.40259	-645.39624	1358.09766	-1279.07959	-606.00739	1142.98718	-1198.16516	-564.61047	1038.96216	-1183.91089	-507.05164	915.09766	-1186.3866	-452.10684	835.18646	-1227.75378	-475.73193	819.90088	-1181.67847	-430.47272	762.47015	-1194.59497	-574.52759	930.71619	-1545.63123	-601.297	932.20715	-1308.27563	-741.70111	948.62964	-1515.83569	-755.89008	962.96387	-1367.09033	-572.83575	627.8075	-1595.67017	-507.263	466.13525	-1545.16638	-484.82782	279.45541	-1550.61292	-416.23691	78.03578	-1519.495	-440.52689	32.29068	-1478.37744	-262.35074	84.80117	-1500.41797	-702.6109	645.22626	-1277.75098	-726.04791	466.6937	-1314.88196	-821.82538	297.64996	-1319.78735	-903.66119	96.96231	-1375.28638	-950.75946	76.09815	-1428.54956	-770.06635	35.60979	-1387.18018	-642.72778	1674.35217	-1457.9375	NaN	NaN	NaN	NaN	NaN	NaN	NaN	NaN	NaN	NaN	NaN	NaN	NaN	NaN	NaN
115	1.14	-544.84058	1608.70532	-1496.72046	-562.96191	1615.84009	-1365.48523	-673.79413	1565.38623	-1508.26929	-685.81061	1572.23145	-1378.01672	-712.42834	1407.63977	-1440.68591	-742.90125	1093.29407	-1443.57507	-590.37592	1331.08374	-1438.12842	-545.15271	1167.0752	-1437.50073	-764.47656	1233.01477	-1340.12524	-636.89954	1364.31714	-1595.91663	-679.07599	1166.12781	-1658.71265	-696.10864	1043.53931	-1667.66406	-696.64227	913.25372	-1669.57751	-696.56165	793.26825	-1642.11694	-727.89655	803.66449	-1687.05859	-730.80267	718.63525	-1677.83936	-635.51886	1357.20276	-1279.56445	-596.19824	1142.15149	-1198.70239	-554.7915	1038.15747	-1184.44373	-496.51166	914.6875	-1187.22009	-440.84952	835.51062	-1228.85962	-464.50061	819.64215	-1182.95508	-418.68921	762.8504	-1195.97375	-563.26422	929.86981	-1545.67432	-591.33002	931.38934	-1308.526	-730.52423	948.00458	-1516.96729	-745.4281	962.09497	-1368.34827	-560.95612	627.3916	-1594.61694	-495.91092	465.54211	-1544.60291	-474.93011	278.1658	-1550.26355	-408.69733	76.487	-1518.65112	-433.13889	30.48345	-1477.56262	-254.50336	82.30237	-1497.91858	-693.83582	645.01215	-1278.10339	-718.33313	466.4884	-1314.39819	-816.92517	298.71387	-1319.44006	-902.27014	99.30801	-1374.81177	-949.43115	79.45043	-1428.18494	-769.77698	35.45862	-1386.99329	-633.36603	1673.39624	-1458.73901	NaN	NaN	NaN	NaN	NaN	NaN	NaN	NaN	NaN	NaN	NaN	NaN	NaN	NaN	NaN
